<?xml version="1.0" encoding="UTF-8" standalone="no"?>
<!DOCTYPE svg PUBLIC "-//W3C//DTD SVG 1.1//EN"
 "http://www.w3.org/Graphics/SVG/1.1/DTD/svg11.dtd">
<!-- Generated by graphviz version 2.46.0 (20210119.1425)
 -->
<!-- Title: dependencies Pages: 1 -->
<svg width="870pt" height="284pt"
 viewBox="0.00 0.00 870.00 284.00" xmlns="http://www.w3.org/2000/svg" xmlns:xlink="http://www.w3.org/1999/xlink">
<g id="graph0" class="graph" transform="scale(1 1) rotate(0) translate(4 280)">
<title>dependencies</title>
<polygon fill="white" stroke="transparent" points="-4,4 -4,-280 866,-280 866,4 -4,4"/>
<text text-anchor="start" x="410.01" y="-42.4" font-family="sans-serif" font-weight="bold" font-size="14.00">Legend</text>
<polygon fill="#ffffb3" stroke="transparent" points="197,-10 197,-30 217,-30 217,-10 197,-10"/>
<text text-anchor="start" x="220.63" y="-15.4" font-family="sans-serif" font-size="14.00"> &#160;Declarations</text>
<polygon fill="#8dd3c7" stroke="transparent" points="310,-10 310,-30 330,-30 330,-10 310,-10"/>
<text text-anchor="start" x="333.73" y="-15.4" font-family="sans-serif" font-size="14.00"> &#160;Module</text>
<polygon fill="#80b1d3" stroke="transparent" points="396,-10 396,-30 416,-30 416,-10 396,-10"/>
<text text-anchor="start" x="419.78" y="-15.4" font-family="sans-serif" font-size="14.00"> &#160;Bootstrap</text>
<polygon fill="#fdb462" stroke="transparent" points="493,-10 493,-30 513,-30 513,-10 493,-10"/>
<text text-anchor="start" x="516.67" y="-15.4" font-family="sans-serif" font-size="14.00"> &#160;Providers</text>
<polygon fill="#fb8072" stroke="transparent" points="589,-10 589,-30 609,-30 609,-10 589,-10"/>
<text text-anchor="start" x="612.73" y="-15.4" font-family="sans-serif" font-size="14.00"> &#160;Exports</text>
<g id="clust1" class="cluster">
<title>cluster_AppModule</title>
<polygon fill="none" stroke="black" stroke-dasharray="1,5" points="8,-70 8,-268 710,-268 710,-70 8,-70"/>
</g>
<g id="clust2" class="cluster">
<title>cluster_AppModule_declarations</title>
<polygon fill="none" stroke="black" points="16,-78 16,-130 702,-130 702,-78 16,-78"/>
</g>
<g id="clust9" class="cluster">
<title>cluster_AppModule_exports</title>
<polygon fill="none" stroke="black" points="436,-208 436,-260 570,-260 570,-208 436,-208"/>
</g>
<g id="clust10" class="cluster">
<title>cluster_AppModule_bootstrap</title>
<polygon fill="none" stroke="black" points="578,-208 578,-260 702,-260 702,-208 578,-208"/>
</g>
<g id="clust12" class="cluster">
<title>cluster_AppServerModule</title>
<polygon fill="none" stroke="black" stroke-dasharray="1,5" points="718,-208 718,-260 854,-260 854,-208 718,-208"/>
</g>
<!-- AppComponent -->
<g id="node1" class="node">
<title>AppComponent</title>
<polygon fill="#ffffb3" stroke="black" points="693.94,-122 588.06,-122 588.06,-86 693.94,-86 693.94,-122"/>
<text text-anchor="middle" x="641" y="-99.8" font-family="Times,serif" font-size="14.00">AppComponent</text>
</g>
<!-- AppModule -->
<g id="node6" class="node">
<title>AppModule</title>
<polygon fill="#8dd3c7" stroke="black" points="549.66,-187 546.66,-191 525.66,-191 522.66,-187 466.34,-187 466.34,-151 549.66,-151 549.66,-187"/>
<text text-anchor="middle" x="508" y="-164.8" font-family="Times,serif" font-size="14.00">AppModule</text>
</g>
<!-- AppComponent&#45;&gt;AppModule -->
<g id="edge1" class="edge">
<title>AppComponent&#45;&gt;AppModule</title>
<path fill="none" stroke="black" d="M623.43,-122.03C623.43,-138.4 623.43,-160 623.43,-160 623.43,-160 559.67,-160 559.67,-160"/>
<polygon fill="black" stroke="black" points="559.67,-156.5 549.67,-160 559.67,-163.5 559.67,-156.5"/>
</g>
<!-- ClockComponent -->
<g id="node2" class="node">
<title>ClockComponent</title>
<polygon fill="#ffffb3" stroke="black" points="570.27,-122 455.73,-122 455.73,-86 570.27,-86 570.27,-122"/>
<text text-anchor="middle" x="513" y="-99.8" font-family="Times,serif" font-size="14.00">ClockComponent</text>
</g>
<!-- ClockComponent&#45;&gt;AppModule -->
<g id="edge2" class="edge">
<title>ClockComponent&#45;&gt;AppModule</title>
<path fill="none" stroke="black" d="M508,-122.11C508,-122.11 508,-140.99 508,-140.99"/>
<polygon fill="black" stroke="black" points="504.5,-140.99 508,-150.99 511.5,-140.99 504.5,-140.99"/>
</g>
<!-- HomeComponent -->
<g id="node3" class="node">
<title>HomeComponent</title>
<polygon fill="#ffffb3" stroke="black" points="437.55,-122 322.45,-122 322.45,-86 437.55,-86 437.55,-122"/>
<text text-anchor="middle" x="380" y="-99.8" font-family="Times,serif" font-size="14.00">HomeComponent</text>
</g>
<!-- HomeComponent&#45;&gt;AppModule -->
<g id="edge3" class="edge">
<title>HomeComponent&#45;&gt;AppModule</title>
<path fill="none" stroke="black" d="M380,-122.03C380,-138.4 380,-160 380,-160 380,-160 456.09,-160 456.09,-160"/>
<polygon fill="black" stroke="black" points="456.09,-163.5 466.09,-160 456.09,-156.5 456.09,-163.5"/>
</g>
<!-- ListComponent -->
<g id="node4" class="node">
<title>ListComponent</title>
<polygon fill="#ffffb3" stroke="black" points="304.61,-122 201.39,-122 201.39,-86 304.61,-86 304.61,-122"/>
<text text-anchor="middle" x="253" y="-99.8" font-family="Times,serif" font-size="14.00">ListComponent</text>
</g>
<!-- ListComponent&#45;&gt;AppModule -->
<g id="edge4" class="edge">
<title>ListComponent&#45;&gt;AppModule</title>
<path fill="none" stroke="black" d="M253,-122.11C253,-141.34 253,-169 253,-169 253,-169 456.18,-169 456.18,-169"/>
<polygon fill="black" stroke="black" points="456.18,-172.5 466.18,-169 456.18,-165.5 456.18,-172.5"/>
</g>
<!-- TurnGenerateComponent -->
<g id="node5" class="node">
<title>TurnGenerateComponent</title>
<polygon fill="#ffffb3" stroke="black" points="183.56,-122 24.44,-122 24.44,-86 183.56,-86 183.56,-122"/>
<text text-anchor="middle" x="104" y="-99.8" font-family="Times,serif" font-size="14.00">TurnGenerateComponent</text>
</g>
<!-- TurnGenerateComponent&#45;&gt;AppModule -->
<g id="edge5" class="edge">
<title>TurnGenerateComponent&#45;&gt;AppModule</title>
<path fill="none" stroke="black" d="M104,-122.29C104,-144.21 104,-178 104,-178 104,-178 456.29,-178 456.29,-178"/>
<polygon fill="black" stroke="black" points="456.29,-181.5 466.29,-178 456.29,-174.5 456.29,-181.5"/>
</g>
<!-- ClockComponent  -->
<g id="node7" class="node">
<title>ClockComponent </title>
<polygon fill="#fb8072" stroke="black" points="562.27,-252 443.73,-252 443.73,-216 562.27,-216 562.27,-252"/>
<text text-anchor="middle" x="503" y="-229.8" font-family="Times,serif" font-size="14.00">ClockComponent </text>
</g>
<!-- AppModule&#45;&gt;ClockComponent  -->
<g id="edge6" class="edge">
<title>AppModule&#45;&gt;ClockComponent </title>
<path fill="none" stroke="black" stroke-dasharray="5,2" d="M508,-187.11C508,-187.11 508,-205.99 508,-205.99"/>
<polygon fill="black" stroke="black" points="504.5,-205.99 508,-215.99 511.5,-205.99 504.5,-205.99"/>
</g>
<!-- AppComponent  -->
<g id="node8" class="node">
<title>AppComponent </title>
<polygon fill="#80b1d3" stroke="black" points="694.44,-252 585.56,-252 585.56,-216 694.44,-216 694.44,-252"/>
<text text-anchor="middle" x="640" y="-229.8" font-family="Times,serif" font-size="14.00">AppComponent </text>
</g>
<!-- AppModule&#45;&gt;AppComponent  -->
<g id="edge7" class="edge">
<title>AppModule&#45;&gt;AppComponent </title>
<path fill="none" stroke="black" stroke-dasharray="1,5" d="M549.94,-178C594.5,-178 658.57,-178 658.57,-178 658.57,-178 658.57,-205.97 658.57,-205.97"/>
<polygon fill="black" stroke="black" points="655.07,-205.97 658.57,-215.97 662.07,-205.97 655.07,-205.97"/>
</g>
<!-- AppServerModule -->
<g id="node9" class="node">
<title>AppServerModule</title>
<polygon fill="#8dd3c7" stroke="black" points="846.19,-252 843.19,-256 822.19,-256 819.19,-252 725.81,-252 725.81,-216 846.19,-216 846.19,-252"/>
<text text-anchor="middle" x="786" y="-229.8" font-family="Times,serif" font-size="14.00">AppServerModule</text>
</g>
<!-- AppModule&#45;&gt;AppServerModule -->
<g id="edge8" class="edge">
<title>AppModule&#45;&gt;AppServerModule</title>
<path fill="none" stroke="black" d="M549.92,-169C627.58,-169 786,-169 786,-169 786,-169 786,-205.89 786,-205.89"/>
<polygon fill="black" stroke="black" points="782.5,-205.89 786,-215.89 789.5,-205.89 782.5,-205.89"/>
</g>
<!-- AppServerModule&#45;&gt;AppComponent  -->
<g id="edge9" class="edge">
<title>AppServerModule&#45;&gt;AppComponent </title>
<path fill="none" stroke="black" stroke-dasharray="1,5" d="M725.77,-234C725.77,-234 704.48,-234 704.48,-234"/>
<polygon fill="black" stroke="black" points="704.48,-230.5 694.48,-234 704.48,-237.5 704.48,-230.5"/>
</g>
</g>
</svg>
