<?xml version="1.0" encoding="UTF-8" standalone="no"?>
<!DOCTYPE svg PUBLIC "-//W3C//DTD SVG 1.1//EN"
 "http://www.w3.org/Graphics/SVG/1.1/DTD/svg11.dtd">
<!-- Generated by graphviz version 2.46.0 (20210119.1425)
 -->
<!-- Title: dependencies Pages: 1 -->
<svg width="864pt" height="284pt"
 viewBox="0.00 0.00 864.00 284.00" xmlns="http://www.w3.org/2000/svg" xmlns:xlink="http://www.w3.org/1999/xlink">
<g id="graph0" class="graph" transform="scale(1 1) rotate(0) translate(4 280)">
<title>dependencies</title>
<polygon fill="white" stroke="transparent" points="-4,4 -4,-280 860,-280 860,4 -4,4"/>
<text text-anchor="start" x="407.01" y="-42.4" font-family="sans-serif" font-weight="bold" font-size="14.00">Legend</text>
<polygon fill="#ffffb3" stroke="transparent" points="194,-10 194,-30 214,-30 214,-10 194,-10"/>
<text text-anchor="start" x="217.63" y="-15.4" font-family="sans-serif" font-size="14.00"> &#160;Declarations</text>
<polygon fill="#8dd3c7" stroke="transparent" points="307,-10 307,-30 327,-30 327,-10 307,-10"/>
<text text-anchor="start" x="330.73" y="-15.4" font-family="sans-serif" font-size="14.00"> &#160;Module</text>
<polygon fill="#80b1d3" stroke="transparent" points="393,-10 393,-30 413,-30 413,-10 393,-10"/>
<text text-anchor="start" x="416.78" y="-15.4" font-family="sans-serif" font-size="14.00"> &#160;Bootstrap</text>
<polygon fill="#fdb462" stroke="transparent" points="490,-10 490,-30 510,-30 510,-10 490,-10"/>
<text text-anchor="start" x="513.67" y="-15.4" font-family="sans-serif" font-size="14.00"> &#160;Providers</text>
<polygon fill="#fb8072" stroke="transparent" points="586,-10 586,-30 606,-30 606,-10 586,-10"/>
<text text-anchor="start" x="609.73" y="-15.4" font-family="sans-serif" font-size="14.00"> &#160;Exports</text>
<g id="clust1" class="cluster">
<title>cluster_AppModule</title>
<polygon fill="none" stroke="black" stroke-dasharray="1,5" points="8,-70 8,-268 704,-268 704,-70 8,-70"/>
</g>
<g id="clust2" class="cluster">
<title>cluster_AppModule_declarations</title>
<polygon fill="none" stroke="black" points="16,-78 16,-130 696,-130 696,-78 16,-78"/>
</g>
<g id="clust10" class="cluster">
<title>cluster_AppModule_bootstrap</title>
<polygon fill="none" stroke="black" points="510,-208 510,-260 634,-260 634,-208 510,-208"/>
</g>
<g id="clust12" class="cluster">
<title>cluster_AppServerModule</title>
<polygon fill="none" stroke="black" stroke-dasharray="1,5" points="712,-208 712,-260 848,-260 848,-208 712,-208"/>
</g>
<!-- AppComponent -->
<g id="node1" class="node">
<title>AppComponent</title>
<polygon fill="#ffffb3" stroke="black" points="687.94,-122 582.06,-122 582.06,-86 687.94,-86 687.94,-122"/>
<text text-anchor="middle" x="635" y="-99.8" font-family="Times,serif" font-size="14.00">AppComponent</text>
</g>
<!-- AppModule -->
<g id="node6" class="node">
<title>AppModule</title>
<polygon fill="#8dd3c7" stroke="black" points="551.66,-187 548.66,-191 527.66,-191 524.66,-187 468.34,-187 468.34,-151 551.66,-151 551.66,-187"/>
<text text-anchor="middle" x="510" y="-164.8" font-family="Times,serif" font-size="14.00">AppModule</text>
</g>
<!-- AppComponent&#45;&gt;AppModule -->
<g id="edge1" class="edge">
<title>AppComponent&#45;&gt;AppModule</title>
<path fill="none" stroke="black" d="M604.38,-122.02C604.38,-139.37 604.38,-163 604.38,-163 604.38,-163 561.67,-163 561.67,-163"/>
<polygon fill="black" stroke="black" points="561.67,-159.5 551.67,-163 561.67,-166.5 561.67,-159.5"/>
</g>
<!-- CardComponent -->
<g id="node2" class="node">
<title>CardComponent</title>
<polygon fill="#ffffb3" stroke="black" points="564.05,-122 455.95,-122 455.95,-86 564.05,-86 564.05,-122"/>
<text text-anchor="middle" x="510" y="-99.8" font-family="Times,serif" font-size="14.00">CardComponent</text>
</g>
<!-- CardComponent&#45;&gt;AppModule -->
<g id="edge2" class="edge">
<title>CardComponent&#45;&gt;AppModule</title>
<path fill="none" stroke="black" d="M510,-122.11C510,-122.11 510,-140.99 510,-140.99"/>
<polygon fill="black" stroke="black" points="506.5,-140.99 510,-150.99 513.5,-140.99 506.5,-140.99"/>
</g>
<!-- HomeComponent -->
<g id="node3" class="node">
<title>HomeComponent</title>
<polygon fill="#ffffb3" stroke="black" points="437.55,-122 322.45,-122 322.45,-86 437.55,-86 437.55,-122"/>
<text text-anchor="middle" x="380" y="-99.8" font-family="Times,serif" font-size="14.00">HomeComponent</text>
</g>
<!-- HomeComponent&#45;&gt;AppModule -->
<g id="edge3" class="edge">
<title>HomeComponent&#45;&gt;AppModule</title>
<path fill="none" stroke="black" d="M380,-122.03C380,-138.4 380,-160 380,-160 380,-160 458.15,-160 458.15,-160"/>
<polygon fill="black" stroke="black" points="458.15,-163.5 468.15,-160 458.15,-156.5 458.15,-163.5"/>
</g>
<!-- ListComponent -->
<g id="node4" class="node">
<title>ListComponent</title>
<polygon fill="#ffffb3" stroke="black" points="304.61,-122 201.39,-122 201.39,-86 304.61,-86 304.61,-122"/>
<text text-anchor="middle" x="253" y="-99.8" font-family="Times,serif" font-size="14.00">ListComponent</text>
</g>
<!-- ListComponent&#45;&gt;AppModule -->
<g id="edge4" class="edge">
<title>ListComponent&#45;&gt;AppModule</title>
<path fill="none" stroke="black" d="M253,-122.11C253,-141.34 253,-169 253,-169 253,-169 458.14,-169 458.14,-169"/>
<polygon fill="black" stroke="black" points="458.14,-172.5 468.14,-169 458.14,-165.5 458.14,-172.5"/>
</g>
<!-- TurnGenerateComponent -->
<g id="node5" class="node">
<title>TurnGenerateComponent</title>
<polygon fill="#ffffb3" stroke="black" points="183.56,-122 24.44,-122 24.44,-86 183.56,-86 183.56,-122"/>
<text text-anchor="middle" x="104" y="-99.8" font-family="Times,serif" font-size="14.00">TurnGenerateComponent</text>
</g>
<!-- TurnGenerateComponent&#45;&gt;AppModule -->
<g id="edge5" class="edge">
<title>TurnGenerateComponent&#45;&gt;AppModule</title>
<path fill="none" stroke="black" d="M104,-122.29C104,-144.21 104,-178 104,-178 104,-178 458.08,-178 458.08,-178"/>
<polygon fill="black" stroke="black" points="458.08,-181.5 468.08,-178 458.08,-174.5 458.08,-181.5"/>
</g>
<!-- AppComponent  -->
<g id="node7" class="node">
<title>AppComponent </title>
<polygon fill="#80b1d3" stroke="black" points="626.44,-252 517.56,-252 517.56,-216 626.44,-216 626.44,-252"/>
<text text-anchor="middle" x="572" y="-229.8" font-family="Times,serif" font-size="14.00">AppComponent </text>
</g>
<!-- AppModule&#45;&gt;AppComponent  -->
<g id="edge6" class="edge">
<title>AppModule&#45;&gt;AppComponent </title>
<path fill="none" stroke="black" stroke-dasharray="1,5" d="M534.68,-187.11C534.68,-187.11 534.68,-205.99 534.68,-205.99"/>
<polygon fill="black" stroke="black" points="531.18,-205.99 534.68,-215.99 538.18,-205.99 531.18,-205.99"/>
</g>
<!-- AppServerModule -->
<g id="node8" class="node">
<title>AppServerModule</title>
<polygon fill="#8dd3c7" stroke="black" points="840.19,-252 837.19,-256 816.19,-256 813.19,-252 719.81,-252 719.81,-216 840.19,-216 840.19,-252"/>
<text text-anchor="middle" x="780" y="-229.8" font-family="Times,serif" font-size="14.00">AppServerModule</text>
</g>
<!-- AppModule&#45;&gt;AppServerModule -->
<g id="edge7" class="edge">
<title>AppModule&#45;&gt;AppServerModule</title>
<path fill="none" stroke="black" d="M551.89,-175C627.73,-175 780,-175 780,-175 780,-175 780,-205.98 780,-205.98"/>
<polygon fill="black" stroke="black" points="776.5,-205.98 780,-215.98 783.5,-205.98 776.5,-205.98"/>
</g>
<!-- AppServerModule&#45;&gt;AppComponent  -->
<g id="edge8" class="edge">
<title>AppServerModule&#45;&gt;AppComponent </title>
<path fill="none" stroke="black" stroke-dasharray="1,5" d="M719.84,-234C719.84,-234 636.7,-234 636.7,-234"/>
<polygon fill="black" stroke="black" points="636.7,-230.5 626.7,-234 636.7,-237.5 636.7,-230.5"/>
</g>
</g>
</svg>
