<?xml version="1.0" encoding="UTF-8" standalone="no"?>
<!DOCTYPE svg PUBLIC "-//W3C//DTD SVG 1.1//EN"
 "http://www.w3.org/Graphics/SVG/1.1/DTD/svg11.dtd">
<!-- Generated by graphviz version 2.46.0 (20210119.1425)
 -->
<!-- Title: dependencies Pages: 1 -->
<svg width="726pt" height="284pt"
 viewBox="0.00 0.00 726.00 284.00" xmlns="http://www.w3.org/2000/svg" xmlns:xlink="http://www.w3.org/1999/xlink">
<g id="graph0" class="graph" transform="scale(1 1) rotate(0) translate(4 280)">
<title>dependencies</title>
<polygon fill="white" stroke="transparent" points="-4,4 -4,-280 722,-280 722,4 -4,4"/>
<text text-anchor="start" x="338.01" y="-42.4" font-family="sans-serif" font-weight="bold" font-size="14.00">Legend</text>
<polygon fill="#ffffb3" stroke="transparent" points="125,-10 125,-30 145,-30 145,-10 125,-10"/>
<text text-anchor="start" x="148.63" y="-15.4" font-family="sans-serif" font-size="14.00"> &#160;Declarations</text>
<polygon fill="#8dd3c7" stroke="transparent" points="238,-10 238,-30 258,-30 258,-10 238,-10"/>
<text text-anchor="start" x="261.73" y="-15.4" font-family="sans-serif" font-size="14.00"> &#160;Module</text>
<polygon fill="#80b1d3" stroke="transparent" points="324,-10 324,-30 344,-30 344,-10 324,-10"/>
<text text-anchor="start" x="347.78" y="-15.4" font-family="sans-serif" font-size="14.00"> &#160;Bootstrap</text>
<polygon fill="#fdb462" stroke="transparent" points="421,-10 421,-30 441,-30 441,-10 421,-10"/>
<text text-anchor="start" x="444.67" y="-15.4" font-family="sans-serif" font-size="14.00"> &#160;Providers</text>
<polygon fill="#fb8072" stroke="transparent" points="517,-10 517,-30 537,-30 537,-10 517,-10"/>
<text text-anchor="start" x="540.73" y="-15.4" font-family="sans-serif" font-size="14.00"> &#160;Exports</text>
<g id="clust1" class="cluster">
<title>cluster_AppModule</title>
<polygon fill="none" stroke="black" stroke-dasharray="1,5" points="8,-70 8,-268 710,-268 710,-70 8,-70"/>
</g>
<g id="clust2" class="cluster">
<title>cluster_AppModule_declarations</title>
<polygon fill="none" stroke="black" points="16,-78 16,-130 702,-130 702,-78 16,-78"/>
</g>
<g id="clust10" class="cluster">
<title>cluster_AppModule_bootstrap</title>
<polygon fill="none" stroke="black" points="387,-208 387,-260 511,-260 511,-208 387,-208"/>
</g>
<g id="clust9" class="cluster">
<title>cluster_AppModule_exports</title>
<polygon fill="none" stroke="black" points="245,-208 245,-260 379,-260 379,-208 245,-208"/>
</g>
<!-- AppComponent -->
<g id="node1" class="node">
<title>AppComponent</title>
<polygon fill="#ffffb3" stroke="black" points="693.94,-122 588.06,-122 588.06,-86 693.94,-86 693.94,-122"/>
<text text-anchor="middle" x="641" y="-99.8" font-family="Times,serif" font-size="14.00">AppComponent</text>
</g>
<!-- AppModule -->
<g id="node6" class="node">
<title>AppModule</title>
<polygon fill="#8dd3c7" stroke="black" points="421.66,-187 418.66,-191 397.66,-191 394.66,-187 338.34,-187 338.34,-151 421.66,-151 421.66,-187"/>
<text text-anchor="middle" x="380" y="-164.8" font-family="Times,serif" font-size="14.00">AppModule</text>
</g>
<!-- AppComponent&#45;&gt;AppModule -->
<g id="edge1" class="edge">
<title>AppComponent&#45;&gt;AppModule</title>
<path fill="none" stroke="black" d="M641,-122.28C641,-143.32 641,-175 641,-175 641,-175 431.93,-175 431.93,-175"/>
<polygon fill="black" stroke="black" points="431.93,-171.5 421.93,-175 431.93,-178.5 431.93,-171.5"/>
</g>
<!-- ClockComponent -->
<g id="node2" class="node">
<title>ClockComponent</title>
<polygon fill="#ffffb3" stroke="black" points="570.27,-122 455.73,-122 455.73,-86 570.27,-86 570.27,-122"/>
<text text-anchor="middle" x="513" y="-99.8" font-family="Times,serif" font-size="14.00">ClockComponent</text>
</g>
<!-- ClockComponent&#45;&gt;AppModule -->
<g id="edge2" class="edge">
<title>ClockComponent&#45;&gt;AppModule</title>
<path fill="none" stroke="black" d="M479.54,-122.02C479.54,-139.37 479.54,-163 479.54,-163 479.54,-163 431.93,-163 431.93,-163"/>
<polygon fill="black" stroke="black" points="431.93,-159.5 421.93,-163 431.93,-166.5 431.93,-159.5"/>
</g>
<!-- HomeComponent -->
<g id="node3" class="node">
<title>HomeComponent</title>
<polygon fill="#ffffb3" stroke="black" points="437.55,-122 322.45,-122 322.45,-86 437.55,-86 437.55,-122"/>
<text text-anchor="middle" x="380" y="-99.8" font-family="Times,serif" font-size="14.00">HomeComponent</text>
</g>
<!-- HomeComponent&#45;&gt;AppModule -->
<g id="edge3" class="edge">
<title>HomeComponent&#45;&gt;AppModule</title>
<path fill="none" stroke="black" d="M380,-122.11C380,-122.11 380,-140.99 380,-140.99"/>
<polygon fill="black" stroke="black" points="376.5,-140.99 380,-150.99 383.5,-140.99 376.5,-140.99"/>
</g>
<!-- ListComponent -->
<g id="node4" class="node">
<title>ListComponent</title>
<polygon fill="#ffffb3" stroke="black" points="304.61,-122 201.39,-122 201.39,-86 304.61,-86 304.61,-122"/>
<text text-anchor="middle" x="253" y="-99.8" font-family="Times,serif" font-size="14.00">ListComponent</text>
</g>
<!-- ListComponent&#45;&gt;AppModule -->
<g id="edge4" class="edge">
<title>ListComponent&#45;&gt;AppModule</title>
<path fill="none" stroke="black" d="M278.71,-122.02C278.71,-139.37 278.71,-163 278.71,-163 278.71,-163 328.22,-163 328.22,-163"/>
<polygon fill="black" stroke="black" points="328.22,-166.5 338.22,-163 328.22,-159.5 328.22,-166.5"/>
</g>
<!-- TurnGenerateComponent -->
<g id="node5" class="node">
<title>TurnGenerateComponent</title>
<polygon fill="#ffffb3" stroke="black" points="183.56,-122 24.44,-122 24.44,-86 183.56,-86 183.56,-122"/>
<text text-anchor="middle" x="104" y="-99.8" font-family="Times,serif" font-size="14.00">TurnGenerateComponent</text>
</g>
<!-- TurnGenerateComponent&#45;&gt;AppModule -->
<g id="edge5" class="edge">
<title>TurnGenerateComponent&#45;&gt;AppModule</title>
<path fill="none" stroke="black" d="M104,-122.28C104,-143.32 104,-175 104,-175 104,-175 328.08,-175 328.08,-175"/>
<polygon fill="black" stroke="black" points="328.08,-178.5 338.08,-175 328.08,-171.5 328.08,-178.5"/>
</g>
<!-- ClockComponent  -->
<g id="node7" class="node">
<title>ClockComponent </title>
<polygon fill="#fb8072" stroke="black" points="371.27,-252 252.73,-252 252.73,-216 371.27,-216 371.27,-252"/>
<text text-anchor="middle" x="312" y="-229.8" font-family="Times,serif" font-size="14.00">ClockComponent </text>
</g>
<!-- AppModule&#45;&gt;ClockComponent  -->
<g id="edge6" class="edge">
<title>AppModule&#45;&gt;ClockComponent </title>
<path fill="none" stroke="black" stroke-dasharray="5,2" d="M354.65,-187.11C354.65,-187.11 354.65,-205.99 354.65,-205.99"/>
<polygon fill="black" stroke="black" points="351.15,-205.99 354.65,-215.99 358.15,-205.99 351.15,-205.99"/>
</g>
<!-- AppComponent  -->
<g id="node8" class="node">
<title>AppComponent </title>
<polygon fill="#80b1d3" stroke="black" points="503.44,-252 394.56,-252 394.56,-216 503.44,-216 503.44,-252"/>
<text text-anchor="middle" x="449" y="-229.8" font-family="Times,serif" font-size="14.00">AppComponent </text>
</g>
<!-- AppModule&#45;&gt;AppComponent  -->
<g id="edge7" class="edge">
<title>AppModule&#45;&gt;AppComponent </title>
<path fill="none" stroke="black" stroke-dasharray="1,5" d="M408.18,-187.11C408.18,-187.11 408.18,-205.99 408.18,-205.99"/>
<polygon fill="black" stroke="black" points="404.68,-205.99 408.18,-215.99 411.68,-205.99 404.68,-205.99"/>
</g>
</g>
</svg>
